<?xml version="1.0" encoding="UTF-8"?>
<svg width="100pt" height="100pt" version="1.1" viewBox="0 0 100 100" xmlns="http://www.w3.org/2000/svg">
 <g>
  <path d="m98.98 53.496c-0.52734-2.0234-1.1836-4.0117-1.9609-5.9492-0.48828-0.55078-1.0977-0.97656-1.7773-1.2539-3.4727-4.9688-11.98-12.383-12.918-12.738-5.625-2.2734-19-2.6562-23.363-2.6562-17.324 0-24.242 3.4141-25.809 4.0898-4.332 1.332-15.555 10.102-16.16 10.617h-0.003907c-0.58594 0.45703-1.2031 0.875-1.8477 1.2539l-1.4023 0.10938c-0.73828 0-3.0312 1.0625-7.1406 2.9609-4.1133 1.8984-4.8906 3.1016-4.9609 3.2617-0.070313 0.16016-0.44531 1.5977-0.44531 1.5977-0.43359 0.40625-0.80469 0.875-1.1016 1.3945-0.33203 0.68359 0.34375 7.4336 0.34375 7.4336v0.60547c0.46875 0.52734 0.98828 1.0117 1.5469 1.4453 2.6328 1.0312 5.375 1.7578 8.1719 2.1602h3.4844c-2.5078-2.8242-3.1484-6.8477-1.6445-10.316 1.5039-3.4648 4.8789-5.7461 8.6523-5.8438 5.2734 0.058593 9.5 4.375 9.457 9.6445 0.007813 2.4414-0.90625 4.7969-2.5547 6.5977 9.5547 0 20.375 0.082032 24.848 0.082032 3.9297 0 13.082-0.24219 21.859-0.52344v-0.003906c-1.4102-1.7383-2.1797-3.9141-2.1719-6.1523 0-5.2148 4.2266-9.4453 9.4414-9.4453 5.2188 0 9.4453 4.2305 9.4453 9.4453 0.003906 2.0195-0.625 3.9922-1.7969 5.6367 3.3125-0.13281 5.4453-0.22266 5.4766-0.25391 1.332-1.5156 5.0508-6.2305 5.293-7.1328 0.24219-0.89453-0.4375-3.9766-0.96094-6.0664z"/>
  <path d="m81.523 53.516c-4.2422 0.066406-7.6328 3.5508-7.5859 7.7969-0.003906 2.3438 1.0391 4.5664 2.8398 6.0625 2.8984 2.4219 7.1562 2.2734 9.8789-0.34375 1.5781-1.4883 2.4688-3.5625 2.4648-5.7266 0.046875-4.2461-3.3516-7.7305-7.5977-7.7891zm0 4.7578c1.2344-0.03125 2.3594 0.69141 2.8516 1.8203s0.25 2.4453-0.60938 3.3242c-0.86328 0.88281-2.1719 1.1562-3.3125 0.69141s-1.8867-1.5742-1.8867-2.8047c0-1.6484 1.3125-2.9922 2.957-3.0312z"/>
  <path d="m20.637 53.516c-4.2461 0.066406-7.6367 3.5508-7.5859 7.7969 0.007813 2.6367 1.3398 5.0938 3.5469 6.5352 2.4688 1.6406 5.6797 1.6406 8.1484 0 2.2148-1.4531 3.543-3.9258 3.5352-6.5742 0.03125-4.2539-3.3906-7.7266-7.6445-7.7578zm0 4.7578c1.2305-0.03125 2.3594 0.69141 2.8477 1.8203 0.49219 1.1289 0.25 2.4453-0.60938 3.3242-0.85938 0.88281-2.168 1.1562-3.3125 0.69141-1.1406-0.46484-1.8867-1.5742-1.8867-2.8047 0-1.6484 1.3164-2.9922 2.9609-3.0312z"/>
 </g>
</svg>
